<svg xmlns="http://www.w3.org/2000/svg" xmlns:xlink="http://www.w3.org/1999/xlink" width="575.954" height="528.398" viewBox="0 0 575.954 528.398">
  <defs>
    <linearGradient id="linear-gradient" x1="0.017" y1="0.5" x2="1.071" y2="0.5" gradientUnits="objectBoundingBox">
      <stop offset="0" stop-color="#c4d7f2"/>
      <stop offset="0.236" stop-color="#cadbf3"/>
      <stop offset="0.574" stop-color="#dde8f7"/>
      <stop offset="0.971" stop-color="#fcfdfe"/>
      <stop offset="1" stop-color="#fff"/>
    </linearGradient>
    <linearGradient id="linear-gradient-2" x1="-79.785" y1="0.5" x2="-78.717" y2="0.5" gradientUnits="objectBoundingBox">
      <stop offset="0.409" stop-color="#b1d4f2"/>
      <stop offset="0.459" stop-color="#aacef0"/>
      <stop offset="0.531" stop-color="#97c0ed"/>
      <stop offset="0.615" stop-color="#78a8e7"/>
      <stop offset="0.626" stop-color="#74a5e7"/>
    </linearGradient>
    <linearGradient id="linear-gradient-4" x1="-39.167" y1="0.5" x2="-38.099" y2="0.5" gradientUnits="objectBoundingBox">
      <stop offset="0.409" stop-color="#b1d4f2"/>
      <stop offset="0.459" stop-color="#aacef0"/>
      <stop offset="0.531" stop-color="#97c0ed"/>
      <stop offset="0.616" stop-color="#78a8e7"/>
      <stop offset="0.627" stop-color="#74a5e7"/>
    </linearGradient>
  </defs>
  <g id="Group_299" data-name="Group 299" transform="translate(-253.796 -25.626)">
    <path id="Path_290" data-name="Path 290" d="M705.349,310.283l-49.077-28.47a15.668,15.668,0,0,0-15.686-.018l-56.731,32.737a4.136,4.136,0,0,0-.042,7.142l47.9,28.413a5.371,5.371,0,0,0,2.743.752h22.286l48.744-30A6.147,6.147,0,0,0,705.349,310.283Z" transform="translate(121.336 93.992)" fill="url(#linear-gradient)"/>
    <path id="Path_291" data-name="Path 291" d="M616.742,156.681a11.162,11.162,0,0,1,6.835-1.964,14.525,14.525,0,0,1,7.059,1.943c6.167,2.052,11.7,6.825,13.1,14.619.917,5.1-.463,10.884,2.508,15.127,3.208,4.581,15,7.576,22,16.039,11.755,14.206,2.936,37.316-18.065,41.168-20.794,3.813-31.393-15.641-20.783-32.879,5.34-8.68-3.274-7.972-6.278-12.409-1.5-2.217-3.166-6.828-2.044-9.257a35.617,35.617,0,0,0,2.125-5.176c3.837-11.454-10.368-6.835-12.509-16.267C609.452,162.162,612.284,158.452,616.742,156.681Z" transform="translate(131.921 47.755)" fill="#ff1699"/>
    <g id="Group_299-2" data-name="Group 299" transform="translate(519.926 25.626)">
      <path id="Path_292" data-name="Path 292" d="M624.867,245.312,456.514,148.166a16.949,16.949,0,0,1-8.454-14.635V31.877a6.246,6.246,0,0,1,9.366-5.406L630.31,126.234a15.384,15.384,0,0,1,7.676,13.288v98.219a8.728,8.728,0,0,1-13.119,7.57ZM452.17,28.179a4.228,4.228,0,0,0-2.136,3.7V133.531a14.969,14.969,0,0,0,7.466,12.927l-.492.853.492-.853,168.353,97.148a6.773,6.773,0,0,0,10.159-5.863V139.523a13.407,13.407,0,0,0-6.689-11.58L456.441,28.179a4.234,4.234,0,0,0-4.271,0Z" transform="translate(-448.06 -25.626)" fill="#c4d7f2"/>
    </g>
    <path id="Path_293" data-name="Path 293" d="M408,81.691a12.007,12.007,0,0,1,18.059-10.342l100.886,58.073a42.816,42.816,0,0,1,21.519,36.972l.544,240-140.46-81.148Z" transform="translate(57.047 16.309)" fill="#0b73ec"/>
    <path id="Path_294" data-name="Path 294" d="M548.864,337.387l.069,31.284A16.056,16.056,0,0,1,524.784,382.5L428.2,326.9a39.236,39.236,0,0,1-19.716-33.873l-.084-36.792Z" transform="translate(57.196 85.313)" fill="#1847b3"/>
    <path id="Path_295" data-name="Path 295" d="M527.947,202.784a30.888,30.888,0,0,0-15.526-26.674l-72.785-41.9a8.664,8.664,0,0,0-13.03,7.461l.456,202.255a28.3,28.3,0,0,0,14.225,24.438l69.678,40.112a11.586,11.586,0,0,0,17.423-9.977Z" transform="translate(63.93 39.733)" fill="#fff"/>
    <g id="Group_309" data-name="Group 309" transform="translate(524.577 51.518)">
      <g id="Group_306" data-name="Group 306">
        <g id="Group_300" data-name="Group 300" transform="translate(0.893 31.934)">
          <path id="Path_296" data-name="Path 296" d="M453.111,87.487a.481.481,0,0,0,.247-.067.493.493,0,0,0,.247-.426V68.625a.491.491,0,0,0-.247-.426l-.511-.3a.493.493,0,0,0-.74.427V86.7a.493.493,0,0,0,.247.426l.511.295A.477.477,0,0,0,453.111,87.487Z" transform="translate(-452.107 -67.837)" fill="#c4d7f2"/>
        </g>
        <g id="Group_301" data-name="Group 301" transform="translate(12.895)">
          <path id="Path_297" data-name="Path 297" d="M461.872,103.036a.492.492,0,0,0,.493-.493V45.314a.493.493,0,0,0-.247-.426l-.511-.295a.489.489,0,0,0-.493,0,.494.494,0,0,0-.247.426v57.229a.494.494,0,0,0,.247.426l.511.3A.5.5,0,0,0,461.872,103.036Z" transform="translate(-460.868 -44.526)" fill="#c4d7f2"/>
        </g>
        <g id="Group_302" data-name="Group 302" transform="translate(25.419 27.644)">
          <path id="Path_298" data-name="Path 298" d="M471.013,102.8a.492.492,0,0,0,.493-.493V65.493a.491.491,0,0,0-.247-.426l-.511-.295a.492.492,0,0,0-.738.426v36.81a.491.491,0,0,0,.247.427l.508.295A.5.5,0,0,0,471.013,102.8Z" transform="translate(-470.01 -64.705)" fill="#c4d7f2"/>
        </g>
        <g id="Group_303" data-name="Group 303" transform="translate(37.497 14.197)">
          <path id="Path_299" data-name="Path 299" d="M479.83,113.4a.479.479,0,0,0,.245-.067.489.489,0,0,0,.247-.426V55.677a.489.489,0,0,0-.247-.426l-.511-.295a.486.486,0,0,0-.492,0,.491.491,0,0,0-.247.426V112.61a.493.493,0,0,0,.247.426l.511.295A.477.477,0,0,0,479.83,113.4Z" transform="translate(-478.826 -54.889)" fill="#c4d7f2"/>
        </g>
        <g id="Group_304" data-name="Group 304" transform="translate(47.756 66.586)">
          <path id="Path_300" data-name="Path 300" d="M487.318,105.17a.492.492,0,0,0,.493-.492V93.92a.494.494,0,0,0-.247-.427l-.511-.295a.492.492,0,0,0-.738.426v10.76a.492.492,0,0,0,.245.426l.511.295A.5.5,0,0,0,487.318,105.17Z" transform="translate(-486.315 -93.131)" fill="#c4d7f2"/>
        </g>
        <g id="Group_305" data-name="Group 305" transform="translate(58.121 26.098)">
          <path id="Path_301" data-name="Path 301" d="M494.885,122.084a.492.492,0,0,0,.493-.493V64.363a.5.5,0,0,0-.247-.426l-.51-.295a.494.494,0,0,0-.741.427V121.3a.492.492,0,0,0,.249.427l.51.293A.488.488,0,0,0,494.885,122.084Z" transform="translate(-493.881 -63.577)" fill="#c4d7f2"/>
        </g>
        <path id="Path_302" data-name="Path 302" d="M462.281,96l-.53-.3a3.811,3.811,0,0,1-1.585-3.029V51.711c0-1.162.712-1.7,1.585-1.2l.53.305a3.809,3.809,0,0,1,1.585,3.029V94.8C463.866,95.96,463.154,96.5,462.281,96Z" transform="translate(-448.232 -42.382)" fill="#25ceb9"/>
        <path id="Path_303" data-name="Path 303" d="M495.251,113.258l-.53-.305a3.807,3.807,0,0,1-1.585-3.029V76.292c0-1.163.712-1.7,1.585-1.2l.53.305a3.81,3.81,0,0,1,1.585,3.029v33.632C496.836,113.222,496.122,113.762,495.251,113.258Z" transform="translate(-436.036 -33.288)" fill="#25ceb9"/>
        <path id="Path_304" data-name="Path 304" d="M480.077,101.918l-.529-.305a3.809,3.809,0,0,1-1.585-3.029V73.733c0-1.163.712-1.7,1.585-1.2l.529.305a3.81,3.81,0,0,1,1.586,3.029v24.851C481.663,101.881,480.949,102.42,480.077,101.918Z" transform="translate(-441.649 -34.235)" fill="#25ceb9"/>
        <path id="Path_305" data-name="Path 305" d="M453.57,77.936l-.53-.305a3.813,3.813,0,0,1-1.585-3.029V72.681c0-1.162.714-1.7,1.585-1.2l.53.3a3.811,3.811,0,0,1,1.585,3.029v1.921C455.155,77.9,454.443,78.439,453.57,77.936Z" transform="translate(-451.455 -34.623)" fill="#ff55a2"/>
        <path id="Path_306" data-name="Path 306" d="M471.419,89.808l-.529-.305a3.81,3.81,0,0,1-1.586-3.029V72.8c0-1.162.714-1.7,1.586-1.2l.529.305a3.812,3.812,0,0,1,1.586,3.029V88.61C473.006,89.773,472.291,90.313,471.419,89.808Z" transform="translate(-444.852 -34.581)" fill="#ff55a2"/>
      </g>
      <g id="Group_308" data-name="Group 308" transform="translate(75.178 34.038)">
        <g id="Group_307" data-name="Group 307" transform="translate(0.962)">
          <path id="Path_307" data-name="Path 307" d="M508.038,127.882a.5.5,0,0,0,.247-.067.493.493,0,0,0,.247-.426V70.16a.493.493,0,0,0-.247-.426l-.511-.295a.493.493,0,0,0-.74.426v57.228a.494.494,0,0,0,.247.427l.511.295A.5.5,0,0,0,508.038,127.882Z" transform="translate(-507.034 -69.372)" fill="#c4d7f2"/>
        </g>
        <path id="Path_308" data-name="Path 308" d="M508.447,120.841l-.529-.305a3.811,3.811,0,0,1-1.586-3.028V76.557c0-1.162.715-1.7,1.586-1.2l.529.305a3.812,3.812,0,0,1,1.586,3.029v40.95C510.034,120.806,509.32,121.345,508.447,120.841Z" transform="translate(-506.332 -67.228)" fill="#ff55a2"/>
      </g>
    </g>
    <g id="Group_312" data-name="Group 312" transform="translate(626.715 136.273)">
      <g id="Group_310" data-name="Group 310" transform="translate(20.172 18.259)">
        <path id="Path_309" data-name="Path 309" d="M554.9,123.237a2.581,2.581,0,0,1-3,2.574,5.06,5.06,0,0,0-6.1,3.517,2.579,2.579,0,0,1-3.707,1.314,2.658,2.658,0,0,1-1.341-2.593c.753-7.129,5.984-10.132,12.565-7.225A2.653,2.653,0,0,1,554.9,123.237Z" transform="translate(-540.736 -119.723)" fill="#25ceb9"/>
      </g>
      <g id="Group_311" data-name="Group 311" transform="translate(0)">
        <path id="Path_310" data-name="Path 310" d="M574.23,156.227c0-13.3-8.447-29.261-19.507-37.814a9.782,9.782,0,0,1-3.789-7.743V110.2a3.821,3.821,0,0,1,6.228-2.954c16.076,12.74,28.281,36.016,28.281,55.459,0,22.055-15.7,30.909-34.946,19.626-.005-.011-.005-12.891-.005-12.891.092.055.181.121.273.174C563.7,177.087,574.23,171.081,574.23,156.227Z" transform="translate(-516.955 -106.394)" fill="#214baf"/>
        <path id="Path_311" data-name="Path 311" d="M537.292,129.9c2.191,13.4,11.516,27.956,22.7,34.565v12.88c-17.106-10.035-31.3-32.677-33.95-53.037a3.378,3.378,0,0,1,5.037-3.33l.3.169A12.257,12.257,0,0,1,537.292,129.9Z" transform="translate(-526.011 -101.166)" fill="#0e76ef"/>
      </g>
    </g>
    <g id="Group_313" data-name="Group 313" transform="translate(562.998 241.815)">
      <path id="Path_312" data-name="Path 312" d="M499.768,204.149l-20.267-11.7v2.107l20.267,11.7Z" transform="translate(-479.501 -180.099)" fill="#1d6ce5"/>
      <path id="Path_313" data-name="Path 313" d="M499.768,209.682l-20.267-11.7v2.108l20.267,11.7Z" transform="translate(-479.501 -178.052)" fill="#1d6ce5"/>
      <path id="Path_314" data-name="Path 314" d="M479.5,183.435v2.107l7.088,4.09v-2.107Z" transform="translate(-479.501 -183.435)" fill="#1d6ce5"/>
      <path id="Path_315" data-name="Path 315" d="M479.5,186.441v2.107l7.088,4.09v-2.107Z" transform="translate(-479.501 -182.323)" fill="#1d6ce5"/>
      <path id="Path_316" data-name="Path 316" d="M479.5,207.643v2.107l5.949,3.433v-2.107Z" transform="translate(-479.501 -174.48)" fill="#1d6ce5"/>
      <path id="Path_317" data-name="Path 317" d="M479.5,210.648v2.107l5.949,3.433v-2.107Z" transform="translate(-479.501 -173.368)" fill="#1d6ce5"/>
      <path id="Path_318" data-name="Path 318" d="M479.5,219.667v2.107l13.735,7.926v-2.107Z" transform="translate(-479.501 -170.032)" fill="#1d6ce5"/>
      <path id="Path_319" data-name="Path 319" d="M479.5,225.679v2.107l13.735,7.927V233.6Z" transform="translate(-479.501 -167.807)" fill="#1d6ce5"/>
      <path id="Path_320" data-name="Path 320" d="M479.5,228.883v2.107l5.163,2.979v-2.107Z" transform="translate(-479.501 -166.622)" fill="#1d6ce5"/>
      <path id="Path_321" data-name="Path 321" d="M479.5,237.9v2.107l5.163,2.979V240.88Z" transform="translate(-479.501 -163.286)" fill="#1d6ce5"/>
      <path id="Path_322" data-name="Path 322" d="M479.5,243.914v2.107L484.664,249v-2.107Z" transform="translate(-479.501 -161.062)" fill="#1d6ce5"/>
    </g>
    <path id="Path_323" data-name="Path 323" d="M691.153,263.318v60.243a4.1,4.1,0,0,1-2.073,3.58l-48.669,28.085a14.384,14.384,0,0,1-14.375,0l-48.507-27.991a3.943,3.943,0,0,1-1.978-3.674h-.3V263.318Z" transform="translate(118.919 87.931)" fill="url(#linear-gradient-2)"/>
    <path id="Path_324" data-name="Path 324" d="M640.338,303.825l48.67-28.084a4.133,4.133,0,0,0,0-7.159l-48.933-28.236a13.075,13.075,0,0,0-13.072,0l-49.547,28.589a3.982,3.982,0,0,0,0,6.9l48.507,27.991A14.377,14.377,0,0,0,640.338,303.825Z" transform="translate(118.997 78.785)" fill="#f0f0fc"/>
    <path id="Path_325" data-name="Path 325" d="M407.995,250.749l12.671-7.309a1.077,1.077,0,0,0,0-1.864l-12.738-7.35a3.408,3.408,0,0,0-3.4,0l-12.9,7.442a1.037,1.037,0,0,0,0,1.8l12.627,7.285A3.738,3.738,0,0,0,407.995,250.749Z" transform="translate(50.797 77.001)" fill="#25ceb9"/>
    <path id="Path_326" data-name="Path 326" d="M574.571,268.1l-44.608-25.74c-5.071-2.928-9.184-10.78-9.184-17.539V177.073c0-6.759,4.113-9.866,9.184-6.939l44.608,25.74c5.073,2.928,9.184,10.78,9.184,17.539v47.748C583.755,267.921,579.644,271.026,574.571,268.1Z" transform="translate(98.767 53.052)" fill="#25ceb9"/>
    <g id="Group_314" data-name="Group 314" transform="translate(446.923 112.484)">
      <path id="Path_327" data-name="Path 327" d="M404.675,90.85l44.608,25.74c.2.114.388.248.581.374l44.63,25.753c5.071,2.926,9.184,10.779,9.184,17.538v59.25c0,6.759-4.113,9.866-9.184,6.94L449.886,200.7c-.195-.114-.388-.247-.581-.374l-47.931-27.692c-5.071-2.928-5.883-8.839-5.883-15.6V97.789C395.491,91.03,399.6,87.924,404.675,90.85Z" transform="translate(-394.505 -88.763)" fill="#fcfcfc"/>
      <path id="Path_328" data-name="Path 328" d="M494.266,227.565l-44.607-25.741c-.164-.095-.326-.2-.6-.385l-47.907-27.681c-5.6-3.233-6.377-9.818-6.377-16.452V98.055c0-3.915,1.337-6.932,3.667-8.277,1.984-1.144,4.467-.974,7,.484l44.6,25.74c.17.1.338.208.608.388l44.605,25.741c5.337,3.078,9.679,11.328,9.679,18.391v59.25c0,3.915-1.337,6.933-3.667,8.279a5.635,5.635,0,0,1-2.852.749A8.368,8.368,0,0,1,494.266,227.565ZM404.447,91.97c-1.889-1.09-3.671-1.262-5.022-.485-1.7.985-2.681,3.378-2.681,6.57v59.251c0,6.983.917,12.164,5.391,14.745l47.837,27.643.295.181c.126.085.252.168.381.242l44.605,25.741c1.889,1.092,3.673,1.263,5.024.484,1.7-.984,2.681-3.378,2.681-6.57v-59.25c0-6.433-3.9-13.919-8.691-16.684l-44.531-25.7-.288-.174c-.129-.086-.258-.173-.392-.249L404.447,91.97Z" transform="translate(-394.771 -89.029)" fill="#c4d7f2"/>
    </g>
    <path id="Path_329" data-name="Path 329" d="M534.73,314.969,502.2,296.2c-3.7-2.134-6.7-7.861-6.7-12.79V248.584c0-4.929,3-7.195,6.7-5.061L534.73,262.3c3.7,2.134,6.7,7.861,6.7,12.791v34.821C541.427,314.837,538.428,317.1,534.73,314.969Z" transform="translate(89.416 80.312)" fill="#1847b3"/>
    <path id="Path_330" data-name="Path 330" d="M395.059,175.73l-10.442-6.025a5.146,5.146,0,0,1-2.148-4.106V154.423c0-1.582.962-2.31,2.148-1.625l10.442,6.025a5.149,5.149,0,0,1,2.151,4.106v11.176C397.21,175.689,396.245,176.415,395.059,175.73Z" transform="translate(47.601 46.951)" fill="#1b3488"/>
    <path id="Path_331" data-name="Path 331" d="M486.762,330.727l-46.637-26.912c-5.3-3.059-9.6-11.268-9.6-18.335V235.558c0-7.068,4.3-10.316,9.6-7.255l46.637,26.912c5.3,3.059,9.6,11.268,9.6,18.337v49.919C496.366,330.539,492.065,333.786,486.762,330.727Z" transform="translate(65.379 74.552)" fill="#c4d7f2"/>
    <path id="Path_332" data-name="Path 332" d="M617.578,192.777c-7.039,11.525-17.38,23.688-21.944,36.379-.273.756-.495,1.545-.744,2.317l10.458,3.295c.285-.844.58-1.658.889-2.4,0,0,1.571-3.263,2.273-4.411,8.076-13.22,9.913-15.36,18.613-29.6C630.841,192.269,621.283,186.711,617.578,192.777Z" transform="translate(126.184 60.866)" fill="#fbc5a9"/>
    <path id="Path_333" data-name="Path 333" d="M573.062,321.2c-3.2-1.849-8.853-1.615-12.554.519l-4.88,2.817c-3.7,2.134-4.106,5.395-.9,7.244s8.854,1.615,12.554-.521l4.88-2.817C575.861,326.315,576.266,323.054,573.062,321.2Z" transform="translate(110.526 108.884)" fill="#ff1699"/>
    <path id="Path_334" data-name="Path 334" d="M600.186,332.971c-3.595-.875-8.951.936-11.9,4.023l-3.892,4.072c-2.951,3.088-2.425,6.33,1.17,7.206s8.953-.936,11.9-4.022l3.892-4.073C604.308,337.087,603.781,333.846,600.186,332.971Z" transform="translate(121.593 113.617)" fill="#ff1699"/>
    <g id="Group_315" data-name="Group 315" transform="translate(710.458 364.087)">
      <path id="Path_335" data-name="Path 335" d="M634.681,273.61c-12.249,8.013-25.945,15.2-37.309,24.408-5.478,4.439-6.929,11.723-8.2,18.416-2.522,13.264-3.2,27.493.962,40.484,2.162,6.746,12.839,3.861,10.659-2.938-3.795-11.843-3.1-25.114-.445-37.151,1.706-7.737,1.429-8.5,7.063-12.184Q623.835,293.9,640.26,283.15c5.929-3.878.4-13.45-5.58-9.54Z" transform="translate(-587.141 -272.689)" fill="#fbc5a9"/>
    </g>
    <g id="Group_316" data-name="Group 316" transform="translate(675.015 344.899)">
      <path id="Path_336" data-name="Path 336" d="M572.127,343.867c3.6-13.956,7.054-27.958,10.8-41.876,4.687-17.426,20.393-24.085,34.57-32.9,6.029-3.75.485-13.312-5.58-9.54-16.1,10.01-33.261,17.846-39.11,37.414-4.325,14.467-7.566,29.347-11.336,43.97-1.777,6.889,8.883,9.829,10.66,2.936Z" transform="translate(-561.269 -258.683)" fill="#fbc5a9"/>
    </g>
    <path id="Path_337" data-name="Path 337" d="M652.925,200.424A187.852,187.852,0,0,1,655.467,228q.485,23.668.971,47.34c.214,10.484.275,21.692-4.266,30.495-2.356,4.565-5.773,8.088-9.236,11.358A166.507,166.507,0,0,1,626.572,330.8a8.42,8.42,0,0,1-4.15,1.975c-1.759.11-3.413-.971-4.955-2.039-11.429-7.889-26.526-13.158-34.586-26.032-1.518-2.422-1.662-5.3-1.644-8.38.032-5.181,6.5-12.36,10.076-14.943q5.741-4.147,11.6-8.017c3.136-2.071,6.376-4.161,8.711-7.5,3.848-5.5,4.562-13.323,5.1-20.615q1.116-15.044,2.23-30.087c.507-6.833,1.06-13.872,3.618-19.937C629.94,177.772,650.122,185.984,652.925,200.424Z" transform="translate(121.133 59.091)" fill="#284cf9"/>
    <path id="Path_338" data-name="Path 338" d="M574.358,255.321l24.051-10.509,40.831,22.923a2.171,2.171,0,0,1,.09,3.733l-17.937,11.265Z" transform="translate(118.588 81.085)" fill="#72a3e6"/>
    <g id="Group_317" data-name="Group 317" transform="translate(724.561 256.06)">
      <path id="Path_339" data-name="Path 339" d="M636.367,199.1l2.655,22.837c.811,6.977,4.114,18.38.255,24.921-3.759,6.366-13.879,10.292-19.837,13.965q-9.7,5.98-19.4,11.957c-6.044,3.728-.5,13.288,5.58,9.542q11.08-6.83,22.16-13.661c7.233-4.461,16.572-8.625,21.037-16.226,4.84-8.239,3.607-17.413,2.571-26.311-1.045-9.011-2.922-18.013-3.969-27.023-.812-6.98-11.876-7.062-11.057,0Z" transform="translate(-597.435 -193.833)" fill="#fbc5a9"/>
    </g>
    <path id="Path_340" data-name="Path 340" d="M589.021,261.02c-1.423,6.943,9.232,9.91,10.662,2.939,2.619-12.762,4.424-30.111,7.884-40.349l-10.458-3.295C592.949,233.16,591.721,247.875,589.021,261.02Z" transform="translate(123.965 72.023)" fill="#fbc5a9"/>
    <path id="Path_341" data-name="Path 341" d="M578.331,263.283l41.916,25.522a2.3,2.3,0,0,0,3.454-2.377L619.1,261.4a10.628,10.628,0,0,0-4.925-7.154l-39.956-24.327a2.578,2.578,0,0,0-3.877,2.669l4.791,26.045A6.909,6.909,0,0,0,578.331,263.283Z" transform="translate(117.085 75.435)" fill="#b0d0f7"/>
    <g id="Group_318" data-name="Group 318" transform="translate(460.055 128.579)">
      <path id="Path_342" data-name="Path 342" d="M404.356,100.777v1.862l6.9,4.052.013-1.854Z" transform="translate(-404.356 -100.777)" fill="#c4d7f2"/>
      <path id="Path_343" data-name="Path 343" d="M404.356,103.433v1.862l6.872,4.036.015-1.853Z" transform="translate(-404.356 -99.795)" fill="#c4d7f2"/>
      <path id="Path_344" data-name="Path 344" d="M404.356,106.089v1.861l6.846,4.02.013-1.854Z" transform="translate(-404.356 -98.812)" fill="#c4d7f2"/>
      <path id="Path_345" data-name="Path 345" d="M404.356,108.745v1.862l17.079,10.028.013-1.854Z" transform="translate(-404.356 -97.83)" fill="#c4d7f2"/>
      <path id="Path_346" data-name="Path 346" d="M404.356,113.634V115.5l12.486,7.331.013-1.853Z" transform="translate(-404.356 -96.021)" fill="#c4d7f2"/>
      <path id="Path_347" data-name="Path 347" d="M404.356,116.29v1.862l12.458,7.315.015-1.854Z" transform="translate(-404.356 -95.039)" fill="#c4d7f2"/>
      <path id="Path_348" data-name="Path 348" d="M441.789,138.218l-10.371-6.09-.015,1.853,10.386,6.1Z" transform="translate(-394.351 -89.179)" fill="#c4d7f2"/>
      <path id="Path_349" data-name="Path 349" d="M404.356,118.946v1.862l12.43,7.3.013-1.853Z" transform="translate(-404.356 -94.056)" fill="#c4d7f2"/>
      <path id="Path_350" data-name="Path 350" d="M442.521,125.045l-31.942-18.754.015-1.854,31.941,18.754Z" transform="translate(-402.054 -99.423)" fill="#c4d7f2"/>
      <path id="Path_351" data-name="Path 351" d="M434.5,122.991l-23.942-14.057.013-1.854,23.943,14.058Z" transform="translate(-402.062 -98.445)" fill="#c4d7f2"/>
      <path id="Path_352" data-name="Path 352" d="M442.573,125.846,429.3,118.051l-.015,1.854,13.29,7.8Z" transform="translate(-395.135 -94.387)" fill="#c4d7f2"/>
      <path id="Path_353" data-name="Path 353" d="M449.508,132.6l-38.955-22.872-.015,1.854,38.97,22.881Z" transform="translate(-402.07 -97.467)" fill="#c4d7f2"/>
      <path id="Path_354" data-name="Path 354" d="M446.03,133.211,419.954,117.9l-.015,1.853,26.09,15.319Z" transform="translate(-398.592 -94.442)" fill="#c4d7f2"/>
      <path id="Path_355" data-name="Path 355" d="M447.985,139.248,414.67,119.687l-.015,1.854,33.329,19.57Z" transform="translate(-400.546 -93.782)" fill="#c4d7f2"/>
      <path id="Path_356" data-name="Path 356" d="M435.988,136.721l-21.353-12.537.015-1.854L436,134.868Z" transform="translate(-400.554 -92.804)" fill="#c4d7f2"/>
      <path id="Path_357" data-name="Path 357" d="M447.735,146.275l-33.121-19.447.015-1.854,33.121,19.447Z" transform="translate(-400.562 -91.826)" fill="#c4d7f2"/>
      <path id="Path_358" data-name="Path 358" d="M421.895,134.323l-12.637-7.42.015-1.854,12.637,7.42Z" transform="translate(-402.543 -91.798)" fill="#c4d7f2"/>
      <path id="Path_359" data-name="Path 359" d="M446.12,146.669l-26.409-15.506-.015,1.853L446.12,148.53Z" transform="translate(-398.682 -89.537)" fill="#c4d7f2"/>
      <path id="Path_360" data-name="Path 360" d="M449.989,151.612l-40.737-23.919-.015,1.854,40.752,23.928Z" transform="translate(-402.551 -90.82)" fill="#c4d7f2"/>
      <path id="Path_361" data-name="Path 361" d="M438.938,149.641l-29.721-17.45.015-1.854,29.72,17.45Z" transform="translate(-402.558 -89.842)" fill="#c4d7f2"/>
      <path id="Path_362" data-name="Path 362" d="M441.478,149.271l-9.219-5.413-.015,1.854,9.234,5.421Z" transform="translate(-394.04 -84.84)" fill="#c4d7f2"/>
      <path id="Path_363" data-name="Path 363" d="M404.356,130.134V132l12.39,7.274.015-1.854Z" transform="translate(-404.356 -89.917)" fill="#c4d7f2"/>
      <path id="Path_364" data-name="Path 364" d="M404.356,132.79v1.861l32.072,18.831.013-1.854Z" transform="translate(-404.356 -88.935)" fill="#c4d7f2"/>
      <path id="Path_365" data-name="Path 365" d="M442.628,155.226l-13.477-7.913-.015,1.854,13.492,7.922Z" transform="translate(-395.19 -83.562)" fill="#c4d7f2"/>
      <path id="Path_366" data-name="Path 366" d="M404.356,135.446v1.862l23.464,13.777.013-1.854Z" transform="translate(-404.356 -87.952)" fill="#c4d7f2"/>
      <path id="Path_367" data-name="Path 367" d="M404.356,138.1v1.862l28.152,16.528.013-1.853Z" transform="translate(-404.356 -86.97)" fill="#c4d7f2"/>
      <path id="Path_368" data-name="Path 368" d="M441.119,164.378l-31.5-18.494.015-1.854,31.5,18.494Z" transform="translate(-402.409 -84.776)" fill="#c4d7f2"/>
      <path id="Path_369" data-name="Path 369" d="M449.137,171.741,409.6,148.528l.013-1.854,39.537,23.214Z" transform="translate(-402.416 -83.798)" fill="#c4d7f2"/>
    </g>
    <g id="Group_319" data-name="Group 319" transform="translate(618.114 100.031)">
      <path id="Path_370" data-name="Path 370" d="M519.733,79.939v1.466l5.436,3.191.011-1.46Z" transform="translate(-519.733 -79.939)" fill="#c4d7f2"/>
      <path id="Path_371" data-name="Path 371" d="M519.733,82.03V83.5l5.413,3.178.012-1.46Z" transform="translate(-519.733 -79.165)" fill="#c4d7f2"/>
      <path id="Path_372" data-name="Path 372" d="M519.733,84.122v1.466l5.39,3.165.012-1.46Z" transform="translate(-519.733 -78.392)" fill="#c4d7f2"/>
      <path id="Path_373" data-name="Path 373" d="M519.733,86.214V87.68l13.449,7.9.011-1.46Z" transform="translate(-519.733 -77.618)" fill="#c4d7f2"/>
      <path id="Path_374" data-name="Path 374" d="M519.733,90.064V91.53l9.833,5.773.011-1.46Z" transform="translate(-519.733 -76.193)" fill="#c4d7f2"/>
      <path id="Path_375" data-name="Path 375" d="M519.733,92.155v1.466l9.81,5.76.011-1.46Z" transform="translate(-519.733 -75.42)" fill="#c4d7f2"/>
      <path id="Path_376" data-name="Path 376" d="M519.733,94.247v1.466l9.789,5.747.011-1.46Z" transform="translate(-519.733 -74.646)" fill="#c4d7f2"/>
      <path id="Path_377" data-name="Path 377" d="M546.2,96.942,524.634,84.28l.011-1.46L546.2,95.476Z" transform="translate(-517.921 -78.873)" fill="#c4d7f2"/>
      <path id="Path_378" data-name="Path 378" d="M543.473,97.433l-18.855-11.07.012-1.46,18.854,11.071Z" transform="translate(-517.927 -78.103)" fill="#c4d7f2"/>
      <path id="Path_379" data-name="Path 379" d="M546.21,101.132,524.6,88.445l.011-1.46,21.6,12.681Z" transform="translate(-517.932 -77.332)" fill="#c4d7f2"/>
      <path id="Path_380" data-name="Path 380" d="M543.471,101.615l-11.465-6.732.011-1.459,11.455,6.725Z" transform="translate(-515.193 -74.95)" fill="#c4d7f2"/>
      <path id="Path_381" data-name="Path 381" d="M545.011,106.369,527.844,96.29l.011-1.46L545.011,104.9Z" transform="translate(-516.733 -74.43)" fill="#c4d7f2"/>
      <path id="Path_382" data-name="Path 382" d="M544.643,108.245l-16.815-9.873.011-1.46,16.815,9.873Z" transform="translate(-516.739 -73.66)" fill="#c4d7f2"/>
      <path id="Path_383" data-name="Path 383" d="M545.022,110.56l-17.21-10.105.011-1.46,17.2,10.1Z" transform="translate(-516.745 -72.889)" fill="#c4d7f2"/>
      <path id="Path_384" data-name="Path 384" d="M533.546,106.356l-9.952-5.843.011-1.46,9.952,5.844Z" transform="translate(-518.305 -72.868)" fill="#c4d7f2"/>
      <path id="Path_385" data-name="Path 385" d="M543.542,112.213l-11.729-6.886.012-1.46,11.717,6.88Z" transform="translate(-515.265 -71.087)" fill="#c4d7f2"/>
      <path id="Path_386" data-name="Path 386" d="M546.589,116.107,523.577,102.6l.012-1.46,23,13.5Z" transform="translate(-518.312 -72.098)" fill="#c4d7f2"/>
    </g>
    <g id="Group_320" data-name="Group 320" transform="translate(524.075 351.766)">
      <path id="Path_387" data-name="Path 387" d="M451.089,263.7v1.466l5.434,3.191.012-1.46Z" transform="translate(-451.089 -263.695)" fill="#fff"/>
      <path id="Path_388" data-name="Path 388" d="M451.089,265.787v1.466l5.413,3.177.011-1.46Z" transform="translate(-451.089 -262.921)" fill="#fff"/>
      <path id="Path_389" data-name="Path 389" d="M451.089,267.879v1.466l5.39,3.165.012-1.46Z" transform="translate(-451.089 -262.148)" fill="#fff"/>
      <path id="Path_390" data-name="Path 390" d="M451.089,269.971v1.466l13.449,7.9.011-1.46Z" transform="translate(-451.089 -261.374)" fill="#fff"/>
      <path id="Path_391" data-name="Path 391" d="M451.089,273.82v1.466l9.832,5.773.012-1.46Z" transform="translate(-451.089 -259.95)" fill="#fff"/>
      <path id="Path_392" data-name="Path 392" d="M451.089,275.912v1.466l9.81,5.759.011-1.459Z" transform="translate(-451.089 -259.176)" fill="#fff"/>
      <path id="Path_393" data-name="Path 393" d="M451.089,278v1.466l9.789,5.747.011-1.46Z" transform="translate(-451.089 -258.402)" fill="#fff"/>
      <path id="Path_394" data-name="Path 394" d="M477.554,280.7l-21.566-12.662.012-1.46,21.554,12.656Z" transform="translate(-449.276 -262.629)" fill="#fff"/>
      <path id="Path_395" data-name="Path 395" d="M474.828,281.189l-18.855-11.071.012-1.46,18.854,11.07Z" transform="translate(-449.282 -261.859)" fill="#fff"/>
      <path id="Path_396" data-name="Path 396" d="M477.566,284.888,455.957,272.2l.011-1.46,21.6,12.68Z" transform="translate(-449.288 -261.088)" fill="#fff"/>
      <path id="Path_397" data-name="Path 397" d="M474.827,285.372l-11.465-6.732.011-1.46,11.455,6.725Z" transform="translate(-446.549 -258.707)" fill="#fff"/>
      <path id="Path_398" data-name="Path 398" d="M476.366,290.126,459.2,280.046l.011-1.46,17.156,10.073Z" transform="translate(-448.089 -258.186)" fill="#fff"/>
      <path id="Path_399" data-name="Path 399" d="M476,292l-16.815-9.873.011-1.46,16.815,9.873Z" transform="translate(-448.094 -257.416)" fill="#fff"/>
      <path id="Path_400" data-name="Path 400" d="M476.378,294.316l-17.211-10.1.012-1.46,17.2,10.1Z" transform="translate(-448.101 -256.646)" fill="#fff"/>
      <path id="Path_401" data-name="Path 401" d="M464.9,290.113l-9.951-5.844.011-1.46,9.952,5.844Z" transform="translate(-449.661 -256.624)" fill="#fff"/>
      <path id="Path_402" data-name="Path 402" d="M474.9,295.969l-11.729-6.886.012-1.46L474.9,294.5Z" transform="translate(-446.62 -254.843)" fill="#fff"/>
      <path id="Path_403" data-name="Path 403" d="M477.945,299.863l-23.012-13.511.012-1.46,23,13.5Z" transform="translate(-449.667 -255.854)" fill="#fff"/>
    </g>
    <g id="Group_321" data-name="Group 321" transform="translate(517.846 163.876)">
      <path id="Path_404" data-name="Path 404" d="M461.326,163.135c-8.151-4.7-14.784-16.141-14.784-25.493,0-4.726,1.651-8.281,4.648-10.012,3.022-1.743,6.97-1.382,11.124,1.014,8.153,4.7,14.786,16.139,14.786,25.492,0,4.728-1.651,8.281-4.648,10.012a8.32,8.32,0,0,1-4.214,1.088A14.042,14.042,0,0,1,461.326,163.135Zm-9.151-33.8c-2.359,1.363-3.66,4.311-3.66,8.3,0,8.725,6.191,19.394,13.8,23.785,3.518,2.03,6.767,2.388,9.151,1.014,2.36-1.363,3.661-4.313,3.661-8.3,0-8.725-6.189-19.394-13.8-23.785a12.1,12.1,0,0,0-5.917-1.834A6.392,6.392,0,0,0,452.175,129.339Z" transform="translate(-446.542 -126.543)" fill="#ff009a"/>
    </g>
    <g id="Group_332" data-name="Group 332" transform="translate(524.751 172.217)">
      <g id="Group_322" data-name="Group 322" transform="translate(4.232 5.336)">
        <path id="Path_405" data-name="Path 405" d="M458.885,150.8c-2.334-1.423-4.214-5.589-4.214-9.379s1.88-5.788,4.214-4.515c2.336,1.423,4.215,5.589,4.215,9.379S461.221,152.076,458.885,150.8Z" transform="translate(-454.671 -136.526)" fill="#ff0060"/>
      </g>
      <g id="Group_323" data-name="Group 323" transform="translate(5.879 1.951)">
        <path id="Path_406" data-name="Path 406" d="M458.44,140.34a5.717,5.717,0,0,1-2.567-4.454c0-1.632,1.148-2.295,2.567-1.488a5.708,5.708,0,0,1,2.569,4.452C461.009,140.484,459.861,141.146,458.44,140.34Z" transform="translate(-455.873 -134.055)" fill="#ff0060"/>
      </g>
      <g id="Group_324" data-name="Group 324" transform="translate(1.597 1.443)">
        <path id="Path_407" data-name="Path 407" d="M458.455,142.184a1.019,1.019,0,0,1-.305-.289l-5.181-7.218c-.237-.332-.292-.74-.123-.914s.5-.048.734.282l5.181,7.218c.237.33.293.74.125.915A.343.343,0,0,1,458.455,142.184Z" transform="translate(-452.748 -133.685)" fill="#ff0060"/>
      </g>
      <g id="Group_325" data-name="Group 325" transform="translate(9.062 8.74)">
        <path id="Path_408" data-name="Path 408" d="M458.723,141.532a1.124,1.124,0,0,1-.429-.5c-.169-.37-.114-.715.122-.771l5.181-1.24c.238-.056.567.2.736.564s.114.715-.123.771l-5.181,1.241A.43.43,0,0,1,458.723,141.532Z" transform="translate(-458.197 -139.011)" fill="#ff0060"/>
      </g>
      <g id="Group_326" data-name="Group 326" transform="translate(1.268 12.777)">
        <path id="Path_409" data-name="Path 409" d="M453.036,144.479a1.117,1.117,0,0,1-.43-.5c-.169-.369-.114-.714.123-.771l5.181-1.24c.237-.058.564.2.733.566s.115.714-.123.771l-5.18,1.24A.421.421,0,0,1,453.036,144.479Z" transform="translate(-452.508 -141.958)" fill="#ff0060"/>
      </g>
      <g id="Group_327" data-name="Group 327" transform="translate(9.391 14.475)">
        <path id="Path_410" data-name="Path 410" d="M464.144,151.7a.983.983,0,0,1-.305-.288l-5.181-7.22c-.237-.33-.292-.738-.123-.914s.5-.048.734.282l5.181,7.22c.237.33.292.74.123.914A.337.337,0,0,1,464.144,151.7Z" transform="translate(-458.437 -143.197)" fill="#ff0060"/>
      </g>
      <g id="Group_328" data-name="Group 328" transform="translate(0 6.481)">
        <path id="Path_411" data-name="Path 411" d="M458.466,142.491l-6.372-3.871a1.154,1.154,0,0,1-.512-.915c.008-.329.281-.419.541-.277l6.357,3.863a1.159,1.159,0,0,1,.512.915C458.984,142.529,458.751,142.655,458.466,142.491Z" transform="translate(-451.582 -137.362)" fill="#ff0060"/>
      </g>
      <g id="Group_329" data-name="Group 329" transform="translate(9.483 12.132)">
        <path id="Path_412" data-name="Path 412" d="M459.03,142.768a1.165,1.165,0,0,1-.526-.892c-.008-.338.222-.484.512-.323l6.358,3.474a1.228,1.228,0,0,1,.54.9c.008.338-.221.484-.512.323l-6.358-3.474Z" transform="translate(-458.504 -141.487)" fill="#ff0060"/>
      </g>
      <g id="Group_330" data-name="Group 330" transform="translate(6.798)">
        <path id="Path_413" data-name="Path 413" d="M457.073,136.361a.983.983,0,0,1-.1-.067,1.117,1.117,0,0,1-.419-.948L457,132.9c.055-.3.329-.353.615-.126a1.119,1.119,0,0,1,.421.948l-.447,2.449C457.54,136.43,457.321,136.505,457.073,136.361Z" transform="translate(-456.544 -132.631)" fill="#ff0060"/>
      </g>
      <g id="Group_331" data-name="Group 331" transform="translate(8.594 0.779)">
        <path id="Path_414" data-name="Path 414" d="M458.828,137.444a1.18,1.18,0,0,1-.516-.79l-.447-2.963c-.053-.36.134-.567.421-.464a1.125,1.125,0,0,1,.615.837l.445,2.965c.053.359-.133.566-.419.463A.641.641,0,0,1,458.828,137.444Z" transform="translate(-457.855 -133.2)" fill="#ff0060"/>
      </g>
    </g>
    <g id="Group_334" data-name="Group 334" transform="translate(632.136 249.352)">
      <g id="Group_333" data-name="Group 333">
        <path id="Path_415" data-name="Path 415" d="M549.324,235.867c-10.672-6.144-19.355-21.075-19.355-33.284s8.683-17.146,19.355-11,19.354,21.075,19.354,33.285S560,242.01,549.324,235.867Zm0-41.582c-9.368-5.392-16.99-1.06-16.99,9.658s7.622,23.825,16.99,29.218,16.989,1.06,16.989-9.658S558.691,199.679,549.324,194.285Z" transform="translate(-529.969 -188.937)" fill="#fff"/>
      </g>
    </g>
    <path id="Path_416" data-name="Path 416" d="M412.021,101.187c0,1.149-.814,1.612-1.815,1.034a4,4,0,0,1-1.815-3.129c0-1.151.812-1.614,1.815-1.034A4,4,0,0,1,412.021,101.187Z" transform="translate(57.191 26.703)" fill="#ff009a"/>
    <path id="Path_417" data-name="Path 417" d="M407.521,98.788c0,1.149-.814,1.612-1.815,1.034a4,4,0,0,1-1.815-3.129c0-1.151.812-1.614,1.815-1.034A4,4,0,0,1,407.521,98.788Z" transform="translate(55.526 25.816)" fill="#c4d7f2"/>
    <path id="Path_418" data-name="Path 418" d="M403.082,96.509c0,1.149-.812,1.612-1.817,1.034a4,4,0,0,1-1.815-3.129c0-1.149.814-1.614,1.815-1.034A3.994,3.994,0,0,1,403.082,96.509Z" transform="translate(53.883 24.973)" fill="#0e3497"/>
    <g id="Group_335" data-name="Group 335" transform="translate(503.114 309.442)">
      <path id="Path_419" data-name="Path 419" d="M448.359,240.856c0,1.149-.814,1.614-1.815,1.034a4,4,0,0,1-1.815-3.129c0-1.151.812-1.614,1.815-1.034A4,4,0,0,1,448.359,240.856Z" transform="translate(-432.48 -231.07)" fill="#fff"/>
      <path id="Path_420" data-name="Path 420" d="M443.859,238.457c0,1.149-.814,1.614-1.817,1.034a3.994,3.994,0,0,1-1.814-3.129c0-1.151.811-1.614,1.814-1.034A4,4,0,0,1,443.859,238.457Z" transform="translate(-434.145 -231.957)" fill="#fff"/>
      <path id="Path_421" data-name="Path 421" d="M439.418,236.178c0,1.149-.812,1.612-1.815,1.034a4,4,0,0,1-1.815-3.129c0-1.149.812-1.612,1.815-1.034A4,4,0,0,1,439.418,236.178Z" transform="translate(-435.788 -232.8)" fill="#fff"/>
    </g>
    <path id="Path_422" data-name="Path 422" d="M426.784,84.156c0,1.149-.814,1.612-1.815,1.034a3.994,3.994,0,0,1-1.817-3.13c0-1.149.812-1.612,1.817-1.034A4,4,0,0,1,426.784,84.156Z" transform="translate(62.651 20.402)" fill="#fff"/>
    <path id="Path_423" data-name="Path 423" d="M422.283,81.757c0,1.149-.812,1.612-1.815,1.034a4,4,0,0,1-1.816-3.129c0-1.151.814-1.614,1.816-1.036A4,4,0,0,1,422.283,81.757Z" transform="translate(60.986 19.515)" fill="#fff"/>
    <path id="Path_424" data-name="Path 424" d="M417.841,79.478c0,1.149-.811,1.612-1.814,1.034a4,4,0,0,1-1.816-3.129c0-1.151.814-1.614,1.816-1.036A4,4,0,0,1,417.841,79.478Z" transform="translate(59.344 18.672)" fill="#fff"/>
    <path id="Path_425" data-name="Path 425" d="M485.791,373.817l-85.458-49.575a27.273,27.273,0,0,0-27.317-.03l-98.785,57a7.2,7.2,0,0,0-.075,12.438l83.413,49.474a9.362,9.362,0,0,0,4.777,1.31h38.8l84.88-52.244A10.7,10.7,0,0,0,485.791,373.817Z" transform="translate(6.226 109.107)" fill="url(#linear-gradient)"/>
    <path id="Path_426" data-name="Path 426" d="M470.356,326.611v53.306a7.677,7.677,0,0,1-3.873,6.691l-90.935,52.474a26.867,26.867,0,0,1-26.859,0l-90.635-52.3a7.368,7.368,0,0,1-3.7-6.865H253.8V326.611Z" transform="translate(0 111.346)" fill="url(#linear-gradient-4)"/>
    <path id="Path_427" data-name="Path 427" d="M375.326,401.785l90.937-52.476a7.722,7.722,0,0,0,0-13.376l-91.431-52.76a24.434,24.434,0,0,0-24.423,0l-92.576,53.421a7.44,7.44,0,0,0,0,12.89l90.634,52.3A26.877,26.877,0,0,0,375.326,401.785Z" transform="translate(0.116 94.067)" fill="#e1edfb"/>
    <g id="Group_336" data-name="Group 336" transform="translate(380.15 276.26)">
      <path id="Path_428" data-name="Path 428" d="M455.376,300.994a15.822,15.822,0,0,1-7.762-1.785l-98.226-56.68c-2.166-1.249-3.359-3.022-3.359-4.991,0-2.306,1.667-4.591,4.57-6.265l35.024-20.211c5.226-3.018,13.187-3.328,17.743-.7l98.226,56.681c2.164,1.249,3.358,3.019,3.358,4.988,0,2.308-1.664,4.591-4.569,6.267l-35.024,20.211A20.511,20.511,0,0,1,455.376,300.994Zm-6.881-3.308c4.076,2.347,11.242,2.034,15.98-.7L499.5,276.776c2.343-1.352,3.686-3.082,3.686-4.743,0-1.311-.879-2.541-2.477-3.465l-98.225-56.68c-4.071-2.351-11.242-2.032-15.982.7L351.48,232.8c-2.343,1.352-3.688,3.08-3.688,4.74,0,1.314.881,2.544,2.478,3.466Z" transform="translate(-346.029 -208.579)" fill="#1b3488"/>
    </g>
    <path id="Path_429" data-name="Path 429" d="M399.167,240.145a5.182,5.182,0,1,1,7.362,7.295l-5.787,5.836a5.183,5.183,0,1,1-7.363-7.295Z" transform="translate(51.084 78.794)" fill="#fcd2c8"/>
    <path id="Path_430" data-name="Path 430" d="M380.77,235.352a5.183,5.183,0,0,1,7.363,7.3l-5.791,5.836a5.182,5.182,0,0,1-7.362-7.295Z" transform="translate(44.278 77.021)" fill="#fcd2c8"/>
    <g id="Group_337" data-name="Group 337" transform="translate(354.731 306.704)">
      <path id="Path_431" data-name="Path 431" d="M397.459,251.571q-9.763,5.493-19.531,10.986c-5.589,3.144-12.936,8.994-19.763,8.69-8.166-.362-11.973-7.72-16.134-13.576q-6.789-9.549-13.576-19.1c-4-5.635,5.292-11,9.261-5.411q5.014,7.052,10.025,14.1c2.9,4.078,7.085,13.953,13.054,12.628,5.589-1.238,12.218-6.872,17.189-9.668l14.062-7.911c6.024-3.388,11.436,5.869,5.413,9.257Z" transform="translate(-327.474 -230.801)" fill="#006fd5"/>
    </g>
    <g id="Group_338" data-name="Group 338" transform="translate(346.892 371.651)">
      <path id="Path_432" data-name="Path 432" d="M371.2,280.106c-15.543,7.226-30.289,17.016-45.241,25.415-9.638,5.414-.978,20.223,8.661,14.809q19.581-11,39.161-22c.867-.488,1.991-1.321,3.132-2.047.059-.722.748-.98,2.851-1.314a8.378,8.378,0,0,0-2.851,1.314,19.144,19.144,0,0,0,.863,3.515c.086.348.149.7.234,1.047l20.6,11.809C395.853,290.674,388.4,272.1,371.2,280.106Z" transform="translate(-321.752 -278.21)" fill="#1a46b1"/>
      <path id="Path_433" data-name="Path 433" d="M362.015,291.758a8.378,8.378,0,0,1,2.851-1.314C362.763,290.778,362.074,291.036,362.015,291.758Z" transform="translate(-306.858 -273.685)" fill="#2a4280"/>
    </g>
    <g id="Group_339" data-name="Group 339" transform="translate(356.417 255.491)">
      <path id="Path_434" data-name="Path 434" d="M330.765,201.25c1.279-.6,2.8-.9,3.674-2.007.741-.933.86-2.267,1.675-3.137,2.018-2.152,5.957.314,8.488-1.2a14.347,14.347,0,0,1,1.891-1.327c2.466-.973,4.689,2.873,7.292,2.365a8.91,8.91,0,0,1,2.069-.562,2.662,2.662,0,0,1,1.581.827,10.728,10.728,0,0,1,2.437,3.776,2.982,2.982,0,0,1,1.36,1.19,3.668,3.668,0,0,1,.381,1.621,11.192,11.192,0,0,1-1.541,5.713,9.892,9.892,0,0,1-.719,2.377,13.232,13.232,0,0,1-3.826,4.981c-.685.518-1.392,1.012-2.1,1.511v2.934a1.131,1.131,0,0,1-1.127,1.129,1.117,1.117,0,0,1-.66-.234,6.881,6.881,0,0,0,.067-.919c0-2.125-.932-3.847-2.08-3.847s-2.082,1.722-2.082,3.847a5.665,5.665,0,0,0,.688,2.84,47.285,47.285,0,0,1-2.129,4.73c-1.236,2.074-3.7,3.722-5.726,2.621a4.9,4.9,0,0,1-1.007-.8,10.087,10.087,0,0,1-1.327-1.621,2.068,2.068,0,0,1-.895-.649c-.4-.54-.518-1.245-.882-1.811-.86-1.336-2.963-1.714-3.36-3.252-.247-.947.3-1.956.081-2.91-.341-1.491-2.286-2.055-2.917-3.447-.6-1.325.182-2.819.458-4.247.473-2.462-.611-4.928-1.67-7.2C328.265,203.264,329.489,201.85,330.765,201.25Z" transform="translate(-328.705 -193.418)" fill="#1d3388"/>
      <path id="Path_435" data-name="Path 435" d="M337.5,225.76c2.03,1.1,4.491-.547,5.726-2.621a47.277,47.277,0,0,0,2.129-4.73,5.665,5.665,0,0,1-.688-2.84c0-2.125.933-3.847,2.082-3.847s2.08,1.722,2.08,3.847a6.88,6.88,0,0,1-.067.919,1.113,1.113,0,0,0,.653.234,1.133,1.133,0,0,0,1.134-1.129v-2.934c.706-.5,1.412-.993,2.1-1.511a13.232,13.232,0,0,0,3.826-4.981v9.4a12.126,12.126,0,0,1-11.009,12.069q.121,5.933.24,11.864c.075,3.677-8.843,3.666-8.917,0q-.148-7.268-.295-14.538A4.9,4.9,0,0,0,337.5,225.76Z" transform="translate(-325.824 -188.702)" fill="#fbc5a9"/>
    </g>
    <g id="Group_340" data-name="Group 340" transform="translate(368.281 383.662)">
      <path id="Path_436" data-name="Path 436" d="M379.566,300.1a6.432,6.432,0,0,1,1.632-.653C379.9,299.726,379.474,299.645,379.566,300.1Z" transform="translate(-321.758 -282.364)" fill="#2a4280"/>
      <path id="Path_437" data-name="Path 437" d="M341.177,316.721c10.433-6.1,20.778-12.792,31.328-18.963,5.255-3.071,10.546-6.048,15.953-8.688,17.015-8.3,23.462,9.935,27.333,22.7,1.269,4.178,2.3,8.394,3.195,12.629l-21.1-12.1c-.51-1.529-.959-3.082-1.515-4.6-.666-1.812-1.118-2.6-1.195-2.991a6.361,6.361,0,0,1,1.632-.653c-1.3.277-1.723.2-1.632.653-1.544.825-3.169,2.154-4.406,2.877-.186.108-.359.214-.544.322-13.416,7.858-25.356,15.272-38.813,23.14C341.86,336.641,331.643,322.3,341.177,316.721Z" transform="translate(-337.365 -286.978)" fill="#1c3288"/>
    </g>
    <path id="Path_438" data-name="Path 438" d="M323.271,261.124c.792-13.051,5.5-36.475,17.056-33.12,10.529,3.06,19.275,5.306,23.368,13.171a5.437,5.437,0,0,1,.969.911c3.341,4.7,17.109,28.056,23.078,26.733,5.472-1.214,4.909-2.762,31.252-17.579,6.022-3.388,11.435,5.869,5.413,9.257-31.017,17.445-32.953,19.957-39.294,19.674-6.681-.295-9.314-3.551-19.3-17.838-.569,10.138-1.352,29.17-.695,70.881.052,3.363,1.395,14.72-.37,17.522-1.974,3.129-3.36,5.528-6.9,5.391a23.424,23.424,0,0,1-10.194-2.918c-25.789-14.036-26.015-16.835-26.825-32.913C319.839,300.6,322.079,280.81,323.271,261.124Z" transform="translate(24.708 74.747)" fill="#0b73ec"/>
    <path id="Path_439" data-name="Path 439" d="M632.237,176c1.048-.243,1.859-1.748,1.859-3.591,0-2.01-.962-3.639-2.148-3.639s-2.148,1.629-2.148,3.639a5.812,5.812,0,0,0,.14,1.254,1.794,1.794,0,0,1-.314-.188c-1.169-.938-.888-2.691-1.252-4.111a6.339,6.339,0,0,0-1.386-2.47c-3.773-4.48-10.3-.9-14.368-3.493v9.768A11.809,11.809,0,0,0,622.9,184.851q.08,4.537.16,9.073a8.281,8.281,0,0,0-3.985.918c-2.4,1.385-2.1,3.829.675,5.428l3.49,2.015c2.773,1.6,7.007,1.775,9.409.389,2.238-1.292,2.1-3.492-.171-5.082a2.725,2.725,0,0,0,.233-1.121q-.164-9.257-.329-18.515c-.005-.382-.014-.764-.021-1.147A2.867,2.867,0,0,0,632.237,176Z" transform="translate(132.743 50.967)" fill="#fbc5a9"/>
    <path id="Path_440" data-name="Path 440" d="M458.621,322.671c0,2.029-1.434,2.847-3.2,1.826a7.055,7.055,0,0,1-3.2-5.522c0-2.029,1.434-2.847,3.2-1.826A7.055,7.055,0,0,1,458.621,322.671Z" transform="translate(73.402 107.683)" fill="#fff"/>
    <g id="Group_341" data-name="Group 341" transform="translate(555.73 440.402)">
      <path id="Path_441" data-name="Path 441" d="M474.283,330.215l6.044,3.488v-1.819l-6.044-3.488Z" transform="translate(-474.163 -328.396)" fill="#fff"/>
      <path id="Path_442" data-name="Path 442" d="M474.227,332.323l6.046,3.489v-1.821l-6.046-3.488Z" transform="translate(-474.184 -327.616)" fill="#fff"/>
      <path id="Path_443" data-name="Path 443" d="M474.2,334.433l6.044,3.488V336.1l-6.044-3.488Z" transform="translate(-474.195 -326.835)" fill="#fff"/>
    </g>
    <path id="Path_444" data-name="Path 444" d="M431.1,310.475l5.125,2.958v-5.878L431.1,304.6Z" transform="translate(65.59 103.202)" fill="#fff"/>
    <path id="Path_445" data-name="Path 445" d="M494.666,337l-19.43-11.212c-2.208-1.275-4-4.695-4-7.639v-20.8c0-2.943,1.792-4.3,4-3.022l19.43,11.213c2.21,1.274,4,4.695,4,7.639v20.8C498.666,336.924,496.876,338.276,494.666,337Z" transform="translate(80.439 99.227)" fill="#0145ff"/>
    <path id="Path_446" data-name="Path 446" d="M490.653,323.664l-4.088-7.072a4.688,4.688,0,0,0,1.089-3.3,13.091,13.091,0,0,0-5.922-10.246c-3.265-1.885-5.922-.355-5.922,3.41a13.093,13.093,0,0,0,5.922,10.246,4.489,4.489,0,0,0,3.714.626l4.05,7c.318.552.838.852,1.158.67S490.971,324.215,490.653,323.664Zm-13.4-16.376c0-2.845,2.008-4,4.477-2.578a9.9,9.9,0,0,1,4.477,7.744c0,2.847-2.008,4-4.477,2.58A9.9,9.9,0,0,1,477.255,307.288Z" transform="translate(82.132 102.329)" fill="#fff"/>
    <g id="Group_348" data-name="Group 348" transform="translate(495.67 242.739)">
      <g id="Group_342" data-name="Group 342" transform="translate(5.34 2.526)">
        <path id="Path_447" data-name="Path 447" d="M456.918,241.661c-12.5-7.213-22.666-24.744-22.666-39.079,0-7.114,2.455-12.449,6.911-15.021,4.5-2.593,10.416-2.034,16.669,1.574,12.5,7.213,22.666,24.742,22.666,39.077,0,7.115-2.455,12.45-6.913,15.023a12.33,12.33,0,0,1-6.241,1.607A21.2,21.2,0,0,1,456.918,241.661ZM442.08,189.146c-3.867,2.232-6,7-6,13.436,0,13.753,9.757,30.573,21.75,37.494,5.662,3.267,10.929,3.828,14.838,1.574,3.867-2.233,6-7,6-13.438,0-13.753-9.757-30.573-21.751-37.492a19.4,19.4,0,0,0-9.507-2.934A10.52,10.52,0,0,0,442.08,189.146Z" transform="translate(-434.252 -185.954)" fill="#25ceb9"/>
      </g>
      <g id="Group_343" data-name="Group 343" transform="translate(13.506 13.014)">
        <path id="Path_448" data-name="Path 448" d="M454.712,229.464c-7.995-4.614-14.5-15.83-14.5-25,0-4.624,1.612-8.1,4.539-9.79,2.949-1.7,6.811-1.352,10.876.995,8,4.614,14.5,15.83,14.5,25,0,4.624-1.612,8.1-4.54,9.79a8.125,8.125,0,0,1-4.114,1.062A13.744,13.744,0,0,1,454.712,229.464Zm-9.047-33.207c-2.336,1.348-3.622,4.263-3.622,8.206,0,8.588,6.094,19.094,13.584,23.418,3.474,2,6.685,2.356,9.046.993,2.337-1.348,3.625-4.262,3.625-8.2,0-8.59-6.094-19.094-13.586-23.416a11.935,11.935,0,0,0-5.841-1.811A6.343,6.343,0,0,0,445.665,196.257Z" transform="translate(-440.213 -193.61)" fill="#25ceb9"/>
      </g>
      <g id="Group_344" data-name="Group 344" transform="translate(27.323)">
        <path id="Path_449" data-name="Path 449" d="M451.214,206.987a.915.915,0,0,0,.915-.915V185.025a.915.915,0,0,0-1.83,0v21.046A.915.915,0,0,0,451.214,206.987Z" transform="translate(-450.299 -184.11)" fill="#25ceb9"/>
      </g>
      <g id="Group_345" data-name="Group 345" transform="translate(27.323 41.063)">
        <path id="Path_450" data-name="Path 450" d="M451.214,237.062a.915.915,0,0,0,.915-.914V215a.915.915,0,0,0-1.83,0v21.149A.915.915,0,0,0,451.214,237.062Z" transform="translate(-450.299 -214.084)" fill="#25ceb9"/>
      </g>
      <g id="Group_346" data-name="Group 346" transform="translate(0 14.85)">
        <path id="Path_451" data-name="Path 451" d="M448.766,206.877a.915.915,0,0,0,.459-1.707l-17.5-10.1a.915.915,0,1,0-.914,1.585l17.5,10.1A.923.923,0,0,0,448.766,206.877Z" transform="translate(-430.354 -194.95)" fill="#25ceb9"/>
      </g>
      <g id="Group_347" data-name="Group 347" transform="translate(36.879 36.132)">
        <path id="Path_452" data-name="Path 452" d="M476.091,222.643a.915.915,0,0,0,.459-1.707l-17.9-10.329a.915.915,0,1,0-.915,1.585l17.9,10.329A.9.9,0,0,0,476.091,222.643Z" transform="translate(-457.275 -210.485)" fill="#25ceb9"/>
      </g>
    </g>
    <g id="Group_349" data-name="Group 349" transform="translate(640.473 261.51)">
      <path id="Path_453" data-name="Path 453" d="M547.811,221.311a1.964,1.964,0,0,0,1.4-.586l6.248-6.325a1.973,1.973,0,0,0-2.81-2.771l-4.311,4.365-8.548-17.09a1.973,1.973,0,0,0-3.529,1.764l9.783,19.553a1.976,1.976,0,0,0,1.455,1.067A2.126,2.126,0,0,0,547.811,221.311Z" transform="translate(-536.054 -197.812)" fill="#fff"/>
    </g>
    <g id="Group_350" data-name="Group 350" transform="translate(516.824 202.1)">
      <path id="Path_454" data-name="Path 454" d="M460.121,168.694a8.784,8.784,0,0,1-.943,4.561,2.86,2.86,0,0,1-2.762,1.421l3.622,6.729-4.085-2.359-2.758-5.462-.238-.137a13.788,13.788,0,0,1-5.31-5.365,15.69,15.69,0,0,1-1.852-7.68q0-4.307,1.858-5.507t5.326.8a13.74,13.74,0,0,1,5.306,5.351A15.655,15.655,0,0,1,460.121,168.694Zm-10.981-6.337a11.414,11.414,0,0,0,.956,4.907,6.968,6.968,0,0,0,2.862,3.114q3.82,2.2,3.818-3.615t-3.8-8.021q-1.9-1.1-2.873-.188T449.14,162.357Z" transform="translate(-445.796 -154.445)" fill="#1847b3"/>
      <path id="Path_455" data-name="Path 455" d="M468.252,181.936l-1.09-4.737-5.485-3.165-1.092,3.477-3.437-1.984,5.31-14.261,3.9,2.251,5.33,20.4ZM466.4,173.69q-1.51-6.457-1.7-7.3c-.127-.562-.218-1-.274-1.315q-.337,1.317-1.944,6.35Z" transform="translate(-441.597 -151.921)" fill="#1847b3"/>
    </g>
  </g>
</svg>
